<svg width="118" height="116" viewBox="0 0 118 116" fill="none" xmlns="http://www.w3.org/2000/svg">
<path d="M48.477 99.5816V12.8346H73.6443C80.4376 12.8346 86.5886 14.9453 91.036 18.3421C95.4833 21.7388 98.2161 26.4105 98.2161 31.543C98.2161 36.6742 95.4835 41.3452 91.0363 44.7416C86.589 48.138 80.438 50.2487 73.6443 50.2487C73.0815 50.2487 72.5238 50.2291 71.968 50.1975V40.734V40.484H71.718H70.879H70.629V40.734V99.5472V99.5816H48.477ZM72.3312 99.6292C72.2232 99.6292 72.0993 99.6251 71.968 99.6193V99.5472V51.4306C72.0889 51.4278 72.209 51.4259 72.3312 51.4259C81.0657 51.4259 88.977 54.1419 94.6994 58.5154C100.422 62.8888 103.944 68.9086 103.944 75.5268C103.944 82.1457 100.422 88.1659 94.6994 92.5395C88.977 96.9131 81.0657 99.6292 72.3312 99.6292ZM47.2317 12.8346V99.8309V100.508V100.758H47.4817H48.227H71.0527C71.1788 100.761 71.3528 100.769 71.5379 100.778C71.8189 100.791 72.1258 100.806 72.3312 100.806C81.371 100.806 89.5775 97.9835 95.5293 93.4153C101.481 88.8471 105.189 82.522 105.189 75.5268C105.189 63.4744 94.2047 53.433 79.6384 50.8787C90.9453 48.8009 99.4607 40.9596 99.4607 31.543C99.4607 26.0356 96.5432 21.0588 91.8665 17.4669C87.1899 13.8751 80.7437 11.6574 73.6443 11.6574C73.392 11.6574 73.1358 11.6517 72.8776 11.6458C72.3553 11.6341 71.8249 11.6221 71.3023 11.6574H6.4436H6.1936V11.9074V12.5846V12.8346H6.4436H47.2317Z" fill="#333" stroke="#333" stroke-width="4"/>
</svg>
